HIERARCHY
ROOT root
{
	OFFSET 0.000000 0.000000 0.000000
	CHANNELS 6 Xposition Yposition Zposition Zrotation Yrotation Xrotation
	JOINT lhip
	{
		OFFSET 0.058581 -0.082280 -0.017664
		CHANNELS 3 Zrotation Yrotation Xrotation
		JOINT lknee
		{
			OFFSET 0.043451 -0.386469 0.008037
			CHANNELS 3 Zrotation Yrotation Xrotation
			JOINT lankle
			{
				OFFSET -0.014790 -0.426874 -0.037428
				CHANNELS 3 Zrotation Yrotation Xrotation
				JOINT ltoe
				{
					OFFSET 0.041054 -0.060286 0.122042
					CHANNELS 3 Zrotation Yrotation Xrotation
					End Site
					{
						OFFSET 0.000000 0.000000 0.000000
					}
				}
			}
		}
	}
	JOINT rhip
	{
		OFFSET -0.060310 -0.090513 -0.013543
		CHANNELS 3 Zrotation Yrotation Xrotation
		JOINT rknee
		{
			OFFSET -0.043257 -0.383688 -0.004843
			CHANNELS 3 Zrotation Yrotation Xrotation
			JOINT rankle
			{
				OFFSET 0.019056 -0.420046 -0.034562
				CHANNELS 3 Zrotation Yrotation Xrotation
				JOINT rtoe
				{
					OFFSET -0.034840 -0.062106 0.130323
					CHANNELS 3 Zrotation Yrotation Xrotation
					End Site
					{
						OFFSET 0.000000 0.000000 0.000000
					}
				}
			}
		}
	}
	JOINT lowerback
	{
		OFFSET 0.004439 0.124404 -0.038385
		CHANNELS 3 Zrotation Yrotation Xrotation
		JOINT upperback
		{
			OFFSET 0.004488 0.137956 0.026820
			CHANNELS 3 Zrotation Yrotation Xrotation
			JOINT chest
			{
				OFFSET -0.002265 0.056032 0.002855
				CHANNELS 3 Zrotation Yrotation Xrotation
				JOINT lowerneck
				{
					OFFSET -0.013390 0.211636 -0.033468
					CHANNELS 3 Zrotation Yrotation Xrotation
					JOINT upperneck
					{
						OFFSET 0.010113 0.088937 0.050410
						CHANNELS 3 Zrotation Yrotation Xrotation
						End Site
						{
							OFFSET 0.000000 0.000000 0.000000
						}
					}
				}
				JOINT lclavicle
				{
					OFFSET 0.071702 0.114000 -0.018898
					CHANNELS 3 Zrotation Yrotation Xrotation
					JOINT lshoulder
					{
						OFFSET 0.122921 0.045205 -0.019046
						CHANNELS 3 Zrotation Yrotation Xrotation
						JOINT lelbow
						{
							OFFSET 0.255332 -0.015649 -0.022946
							CHANNELS 3 Zrotation Yrotation Xrotation
							JOINT lwrist
							{
								OFFSET 0.265709 0.012698 -0.007375
								CHANNELS 3 Zrotation Yrotation Xrotation
								End Site
								{
									OFFSET 0.000000 0.000000 0.000000
								}
							}
						}
					}
				}
				JOINT rclavicle
				{
					OFFSET -0.082954 0.112472 -0.023707
					CHANNELS 3 Zrotation Yrotation Xrotation
					JOINT rshoulder
					{
						OFFSET -0.113228 0.046853 -0.008472
						CHANNELS 3 Zrotation Yrotation Xrotation
						JOINT relbow
						{
							OFFSET -0.260127 -0.014369 -0.031269
							CHANNELS 3 Zrotation Yrotation Xrotation
							JOINT rwrist
							{
								OFFSET -0.269108 0.006794 -0.006027
								CHANNELS 3 Zrotation Yrotation Xrotation
								End Site
								{
									OFFSET 0.000000 0.000000 0.000000
								}
							}
						}
					}
				}
			}
		}
	}
}
MOTION
Frames: 17
Frame Time: 0.033333
-0.047304 -1.754475 0.942648 179.932249 -0.861495 95.012584 6.075428 5.466978 0.516730 -4.892591 0.560574 10.916693 6.135675 10.686461 -25.083127 0.000000 -0.000000 0.000000 -9.479990 -5.572070 -9.766404 1.369576 -4.858196 30.096883 0.630962 -3.852889 -27.691723 0.000000 -0.000000 0.000000 -3.397071 1.166344 -6.240853 1.157607 -0.037123 3.710971 -2.593373 -1.478710 3.775243 4.335148 -4.859106 -2.284300 0.218604 -8.684073 3.636750 -23.952021 8.831194 4.592369 -57.973921 -2.415718 20.700364 -142.369092 -70.266041 172.102255 30.469568 -6.151668 -5.145972 20.333908 -6.354659 4.148228 63.564113 -6.143010 19.604665 -115.537182 85.813206 -99.753048 -5.608638 8.491274 -18.775133 
-0.044815 -1.742388 0.936816 179.172707 -1.120525 95.521430 6.163027 5.754233 1.482572 -5.390297 -0.025704 10.284046 5.888284 11.430172 -26.637237 0.000000 -0.000000 0.000000 -10.002829 -5.240897 -12.082520 1.908730 -4.439649 34.925588 1.466287 -4.195932 -28.684005 0.000000 -0.000000 0.000000 -3.698717 0.540116 -4.803809 0.664746 0.377693 3.014338 -2.964591 -1.673261 3.911261 4.798656 -4.047954 -3.538304 0.547641 -8.755581 3.476283 -24.179459 7.411413 4.531543 -57.790927 -4.016883 21.962180 -146.069646 -71.198080 172.992498 32.745796 -4.687892 -11.443574 20.799520 -5.647432 4.355330 64.745282 -6.662037 21.052259 -103.482100 85.879717 -92.245437 -10.350267 7.082422 -29.672856 
-0.042477 -1.729519 0.930968 178.432236 -1.428034 95.860576 6.119028 6.430179 2.172468 -5.768629 0.208070 10.524159 6.794420 11.630724 -27.793848 0.000000 -0.000000 0.000000 -10.674665 -5.451324 -14.758821 2.141936 -4.384080 41.081072 1.800410 -3.330205 -29.036703 0.000000 -0.000000 0.000000 -4.038112 -0.159099 -2.732919 0.311404 0.399387 2.739034 -3.268204 -2.176796 4.240060 4.761831 -3.547503 -5.696887 0.980815 -7.822953 2.284282 -24.696658 5.705374 4.109932 -57.949126 -5.937855 23.140076 -152.122687 -71.796543 175.921446 33.977368 -2.667303 -19.013368 21.137607 -5.287207 3.876080 65.680244 -6.703788 22.225887 -103.248589 85.671930 -96.680802 -14.793694 4.906739 -40.296466 
-0.039004 -1.710326 0.924193 177.451610 -1.566189 96.653366 5.898587 6.415150 3.299668 -5.536326 0.642839 10.151986 7.555180 12.565698 -28.133668 0.000000 -0.000000 0.000000 -11.532289 -5.350345 -18.425689 3.019218 -4.043060 48.805012 2.941328 -1.553159 -27.771948 0.000000 -0.000000 0.000000 -4.523624 -0.697287 -0.740422 0.585733 0.040122 2.052127 -3.239241 -2.450668 3.575025 4.671762 -1.858443 -5.388538 0.689681 -7.533017 3.138827 -25.791140 2.989346 3.601698 -58.290639 -8.050127 24.158544 -147.485647 -74.955713 170.038034 32.977304 -3.029234 -20.281096 21.875348 -4.961658 4.422697 65.967022 -7.744606 21.516974 -98.287928 81.965500 -92.787023 -15.020009 3.992484 -41.478479 
-0.037501 -1.697024 0.919616 177.568989 -1.685048 97.496377 6.123858 7.403086 3.876724 -5.654911 0.343497 9.393405 7.150862 12.096529 -28.617157 0.000000 -0.000000 0.000000 -12.469191 -5.796292 -20.493575 3.673144 -4.758721 52.930639 3.364040 0.007828 -26.822325 0.000000 -0.000000 0.000000 -4.551115 -1.495761 0.185485 0.948086 -0.554755 1.722821 -3.298529 -3.035122 3.520811 4.706470 -0.443232 -6.328274 0.525419 -6.656054 3.332646 -26.296574 1.748438 3.131599 -59.053558 -9.413599 24.472048 -141.813431 -76.852195 164.724996 30.928566 -4.634930 -20.278656 22.497675 -5.136942 4.113003 65.330953 -7.969681 21.065773 -103.676331 79.715326 -98.214388 -14.971036 4.916677 -41.772090 
-0.035570 -1.674918 0.911950 177.828176 -1.907778 98.583166 5.910518 7.803506 4.516867 -5.426656 -0.775183 9.086864 8.108838 13.212841 -28.602122 0.000000 -0.000000 0.000000 -13.959801 -7.808318 -22.190767 6.338557 -4.334350 57.201165 3.285314 0.747292 -25.098478 0.000000 -0.000000 0.000000 -4.027955 -2.427839 0.536005 0.879697 -2.314396 0.256931 -2.850991 -3.725556 5.582345 2.758506 1.310015 -9.446914 2.939795 -3.562134 6.491545 -25.613125 -1.487258 2.305458 -61.019690 -9.469700 23.258454 -130.024340 -79.039397 152.795517 30.831501 -5.622624 -19.982737 21.978256 -3.443698 4.285791 65.228455 -8.160325 16.990157 -117.081800 77.781921 -110.769346 -15.215407 6.508305 -39.386746 
-0.032311 -1.648690 0.903610 177.303402 -1.769482 99.909024 5.963600 8.128829 5.646648 -4.802998 -0.099968 8.209267 8.723116 12.657262 -30.287091 0.000000 -0.000000 0.000000 -14.889105 -8.720813 -23.501657 7.202578 -4.651937 60.784231 4.743507 3.089389 -23.296976 0.000000 -0.000000 0.000000 -2.843941 -3.422145 0.836290 1.515251 -3.377229 -0.499339 -2.708470 -4.428616 5.221620 2.035440 2.193373 -8.254234 2.104274 -1.583694 7.246693 -24.692594 -2.045698 1.906590 -62.415723 -9.438984 22.424035 -115.460316 -80.356657 136.624660 26.966659 -5.866696 -21.714565 20.956456 -4.064057 3.680498 65.033483 -7.257538 16.542062 -126.896638 73.801442 -117.982904 -16.128607 6.152848 -31.267367 
-0.026615 -1.620105 0.892624 175.527214 -1.495421 101.034260 6.222329 8.522276 6.857666 -4.752005 1.170532 8.592019 7.846423 12.703584 -31.809147 0.000000 -0.000000 0.000000 -15.658564 -9.146734 -24.609682 7.597560 -5.445007 63.792140 5.665169 4.791139 -21.689778 0.000000 -0.000000 0.000000 -2.022175 -4.129678 0.431260 2.755102 -4.246058 -0.020086 -2.563879 -4.764857 5.444687 1.953796 4.355795 -8.222088 0.235155 -0.196931 8.021910 -23.192042 -1.929890 1.548517 -63.248476 -8.425026 21.139897 -104.129927 -81.927322 125.791299 25.997547 -6.748333 -20.398899 20.746910 -4.161346 2.157009 64.058542 -4.294906 17.135304 -135.864747 70.378943 -122.625889 -17.345915 8.340540 -22.827930 
-0.020107 -1.590543 0.879548 173.677594 -0.975527 102.727749 6.219467 8.083843 5.305454 -4.153535 2.700085 13.810158 6.894841 13.291461 -34.226499 0.000000 -0.000000 0.000000 -15.778086 -9.086198 -25.388338 8.246317 -5.076935 65.709295 6.184228 6.557007 -21.235788 0.000000 -0.000000 0.000000 -0.663743 -4.372469 -0.005809 4.075859 -5.059048 -0.065303 -2.161143 -5.366534 5.832301 1.719445 6.166349 -8.374399 -2.691960 2.119982 8.910582 -22.605069 -0.460281 1.975523 -63.525249 -5.275156 18.463809 -86.339840 -83.231679 107.254441 27.835266 -8.003087 -15.370186 20.857801 -4.003305 -0.330563 62.295491 0.121626 18.847234 -148.378244 68.579671 -131.383299 -18.991225 11.007623 -11.873289 
-0.008728 -1.554202 0.863576 170.838354 -0.190037 103.414776 6.795128 5.028899 -0.043511 -4.972256 4.197415 30.628868 4.855611 14.946022 -36.165763 0.000000 -0.000000 0.000000 -15.210983 -6.600011 -22.177017 8.919490 -3.675384 64.207345 5.377938 6.377942 -26.252036 0.000000 -0.000000 0.000000 0.567540 -3.105072 2.056762 6.156341 -5.158320 1.052426 -1.929564 -5.436700 5.435539 3.229385 8.777069 -8.253098 -8.108410 3.645362 6.326261 -24.313493 3.749098 2.369962 -59.701819 -0.666465 16.880711 -46.157523 -81.357366 66.533492 27.163043 -7.033887 -15.898393 24.274522 -3.225792 -3.726984 57.488341 8.296360 23.585398 -159.812541 68.282880 -135.994117 -16.204198 14.456344 -0.912529 
-0.000714 -1.524431 0.851190 168.919058 0.095093 103.884973 7.116578 0.935764 -9.294294 -4.744432 7.369214 53.152940 5.374827 14.943328 -29.887039 0.000000 -0.000000 0.000000 -14.804617 -4.851232 -18.235733 9.468176 -2.348003 61.014880 2.069965 3.825333 -31.638843 0.000000 -0.000000 0.000000 1.773660 -0.510706 4.177562 6.883639 -4.594219 2.597037 -1.425959 -4.415040 5.464340 3.070227 8.061391 -9.566495 -10.125286 3.358963 4.003250 -25.877202 4.530137 3.415692 -55.885088 4.111459 15.449081 -24.368078 -75.213019 44.454480 27.161408 -6.918449 -13.528531 26.326708 0.420575 -3.835449 51.868199 14.281348 23.809551 -165.762604 70.128486 -138.068646 -16.087576 16.303005 6.477882 
0.003040 -1.493060 0.839114 167.212370 -0.006059 103.016846 6.929899 0.194035 -20.471011 -7.082969 7.469240 74.342712 6.792813 11.116715 -27.456231 0.000000 -0.000000 0.000000 -15.090429 -4.755235 -13.216790 9.676915 0.456034 57.862834 0.545513 2.065394 -34.908579 0.000000 -0.000000 0.000000 3.519360 2.528443 9.270701 6.586065 -3.551169 4.298509 -1.310192 -1.842513 4.929224 1.691086 5.953784 -10.807912 -9.491902 2.023404 -0.672626 -26.729114 2.480592 4.365514 -51.618686 9.658629 13.779914 -19.395525 -67.690289 38.430428 26.806908 -5.430055 -11.109434 26.485785 6.243687 -2.353470 45.172639 17.872213 19.645859 -161.443253 74.964100 -133.179413 -16.324920 17.753398 13.946069 
0.005503 -1.457793 0.829746 165.703847 -0.452564 102.233287 6.691551 0.000842 -32.764683 -6.328378 11.394876 86.543389 7.511384 12.685084 -27.991773 0.000000 -0.000000 0.000000 -15.902885 -5.108692 -8.129682 10.362975 5.581040 54.270631 0.715899 1.616956 -36.214986 0.000000 -0.000000 0.000000 5.036951 5.723286 16.890421 5.242949 -1.737932 3.157467 -1.030551 0.531207 4.815892 0.931293 2.440897 -13.339450 -7.892545 0.326323 -3.684344 -27.674488 1.348550 5.901339 -46.379707 15.210668 13.284845 -19.449715 -62.291710 35.184298 29.370563 -4.485697 -13.419381 26.987388 10.357795 -1.431574 37.836444 20.400164 13.990106 -92.372581 82.711737 -67.120574 -19.018006 21.261438 22.714252 
0.008959 -1.417142 0.823762 163.719103 -1.242439 102.530892 7.077416 1.021406 -45.798006 -2.905664 16.928901 89.024560 9.421074 13.734849 -27.267018 0.000000 -0.000000 0.000000 -17.583332 -6.486815 -2.958987 10.043095 11.023533 48.166182 1.687276 2.038564 -35.646449 0.000000 -0.000000 0.000000 4.440521 9.318944 21.651247 3.854437 -0.936467 3.799668 -0.094839 2.634449 4.676557 -0.252364 -1.137073 -14.758119 -5.468599 -1.411015 -5.005872 -27.039440 -0.317161 7.819005 -44.396677 20.275000 10.897174 -22.749855 -57.963861 34.399111 32.853384 -3.972028 -11.817781 26.088315 17.103872 0.121296 31.169013 23.353805 6.186217 -24.170827 61.928182 -7.582564 -13.807059 22.143445 34.302682 
0.012794 -1.368265 0.824387 161.940432 -1.100647 104.192481 8.797829 2.525680 -56.269681 -2.331171 23.544160 81.765386 7.005602 11.635511 -26.836824 0.000000 -0.000000 0.000000 -18.401896 -6.470957 2.188404 8.639118 14.506758 38.900389 3.923699 1.798146 -32.359075 0.000000 -0.000000 0.000000 3.609564 13.037640 25.408842 2.518577 0.470429 4.184677 0.778260 4.631838 3.900761 -0.297261 -3.450464 -15.872054 -4.160325 -4.174573 -6.483503 -26.621874 -0.938428 9.083883 -43.658993 21.546955 13.127921 -20.117327 -55.026155 32.022731 30.780423 -2.532588 -15.296706 25.650731 22.746830 1.852701 23.264244 28.074761 -0.772849 -15.753452 28.832070 -8.624878 -11.408783 18.405378 34.886338 
0.019797 -1.311788 0.829204 160.605525 -0.233287 105.607343 8.715388 5.334371 -61.108616 -4.856811 26.458222 70.247235 6.556647 6.781418 -27.022255 0.000000 -0.000000 0.000000 -18.502189 -7.105353 6.169400 5.940454 17.217236 31.825115 8.200774 4.295458 -22.514492 0.000000 -0.000000 0.000000 3.169953 16.498289 29.659926 0.570801 1.889580 6.269333 1.244930 6.180405 1.551334 0.378581 -6.883103 -16.992063 -0.649096 -4.932020 -10.381652 -27.800251 -3.115135 9.112452 -44.802761 22.226332 13.612435 -14.961563 -54.096248 23.359268 30.894219 -1.377261 -16.648871 22.809124 26.198541 1.952973 20.814373 27.595826 -9.702278 -15.523651 10.726357 -37.358379 -20.348240 9.934276 15.075415 
0.028981 -1.242378 0.830222 163.159186 0.955168 107.233436 7.039248 5.170879 -60.052199 -4.253092 26.695974 66.548895 7.863802 6.328859 -26.592833 0.000000 -0.000000 0.000000 -16.340894 -7.415121 9.392918 3.379941 14.887585 28.686400 12.262212 5.380434 -9.201672 0.000000 -0.000000 0.000000 1.665522 17.509665 30.974828 1.107136 0.647668 7.180536 2.765851 5.285530 0.704381 2.422996 -9.519995 -16.118601 1.781347 -2.185153 -13.784642 -31.971795 -2.976746 10.313673 -49.459857 21.514002 9.998333 -5.401230 -54.232555 10.284655 31.773679 -1.338998 -14.786888 25.230660 23.845548 1.747671 22.293588 25.546441 -12.927774 -25.161855 20.439349 -55.131298 -19.745814 7.764974 -4.515268 
